PathFileType	4	(X/Y/Z)	Walk10.trc
DataRate	CameraRate	NumFrames	NumMarkers	Units	OrigDataRate	OrigDataStartFrame	OrigNumFrames
200.000000	200.000000	8	59	mm	200.000000	352	470
Frame#	Times		RCAR		LElbow		LFA1		LWRU		LTH3		LLFC		LTB1		LTB3		RTH2		LCAR		LTH2		LMT5		LMT1		LToe		LASI		LBHD		LUA1		C7		RFA1		RWRU		RPSI		T10		LTH4		LPSI		LACR1		LLMAL		RBHD		RUA1		LElbowM		LFHD		RElbow		LTB2		LWRR		RACR1		RFHD		RToe		RElbowM		RTB2		RLFC		RCAL		RMT5		RLMAL		LMFC		RTB1		RTH3		STRN		RTB4		RASI		RTB3		RMT1		RMFC		LTB4		RTH4		LTH1		LCAL		LMMAL		RMMAL		RTH1		RWRR
			X1	Y1	Z1	X2	Y2	Z2	X3	Y3	Z3	X4	Y4	Z4	X5	Y5	Z5	X6	Y6	Z6	X7	Y7	Z7	X8	Y8	Z8	X9	Y9	Z9	X10	Y10	Z10	X11	Y11	Z11	X12	Y12	Z12	X13	Y13	Z13	X14	Y14	Z14	X15	Y15	Z15	X16	Y16	Z16	X17	Y17	Z17	X18	Y18	Z18	X19	Y19	Z19	X20	Y20	Z20	X21	Y21	Z21	X22	Y22	Z22	X23	Y23	Z23	X24	Y24	Z24	X25	Y25	Z25	X26	Y26	Z26	X27	Y27	Z27	X28	Y28	Z28	X29	Y29	Z29	X30	Y30	Z30	X31	Y31	Z31	X32	Y32	Z32	X33	Y33	Z33	X34	Y34	Z34	X35	Y35	Z35	X36	Y36	Z36	X37	Y37	Z37	X38	Y38	Z38	X39	Y39	Z39	X40	Y40	Z40	X41	Y41	Z41	X42	Y42	Z42	X43	Y43	Z43	X44	Y44	Z44	X45	Y45	Z45	X46	Y46	Z46	X47	Y47	Z47	X48	Y48	Z48	X49	Y49	Z49	X50	Y50	Z50	X51	Y51	Z51	X52	Y52	Z52	X53	Y53	Z53	X54	Y54	Z54	X55	Y55	Z55	X56	Y56	Z56	X57	Y57	Z57	X58	Y58	Z58	X59	Y59	Z59

352	1.76	488.5	832.98	462.58	551.33	1138.7	-194.89	633.36	1006.7	-184.24	715.47	905.97	-152.57	448.84	614.44	-28.358	412.57	513.81	-12.191	428.81	371.38	69.379	369.21	195.19	81.574	689.56	726.33	268.28	798.07	903	-158.79	539.15	690.07	-24.41	385.38	21.818	12.823	437.32	40.05	94.673	490.95	30.367	78.262	582.07	1031.9	-25.284	556.21	1646.9	25.206	552.97	1295.6	-161.66	495.05	1509.8	101.29	421.09	1007.7	436.38	434.9	871.43	446.94	382.81	1018.4	166.1	380.05	1287.9	105.8	471.95	702.36	-46.118	376.85	1019.9	87.869	569.09	1464.3	-59.783	291.18	78.195	49.703	562.84	1656.4	166.6	490.94	1297.5	366.76	513.35	1121.4	-127.39	739.51	1636.5	61.808	422.99	1156.5	403.16	374.51	291.1	4.8282	770.76	951.98	-110.29	406.51	1429.1	229.97	742.08	1640.4	138.38	960.04	99.933	223.91	404.77	1140.1	325.73	746.37	297.44	266.88	679.35	506.24	278.83	732.88	34.471	175.34	876.91	53.684	266.66	770.66	82.774	233.05	431.06	522.65	117.05	762.47	402.2	212.98	652.67	614.7	291.97	659.28	1243.2	106.69	776.37	310.3	204.44	596.62	1032.4	263.33	788.09	218.18	197.97	919.83	84.292	197.73	690.26	522.63	146.31	400.44	286.34	76.83	628.4	705.84	305.99	497.6	790.45	-64.052	232.61	39.555	96.618	324.41	97.736	129.08	802.84	120.55	159.12	596.02	795.86	311.24	499.31	868.93	407.88
353	1.765	492.1	831.98	463.42	557.76	1138.1	-194.89	640.8	1006.7	-183.98	723.72	906.61	-152.04	452.33	614.09	-28.304	415.38	513.67	-12.099	430.72	371.07	69.445	370.08	195.23	81.573	694.65	724.49	268.21	806.35	904.4	-158.2	543.09	689.16	-24.322	385.37	21.804	12.823	437.32	40.051	94.652	490.94	30.354	78.241	587.77	1030.9	-25.164	562.1	1645.9	25.884	558.93	1294.9	-161.37	501.08	1508.8	101.89	425.57	1007	436.86	438.76	870.66	447.54	389	1017.4	166.66	386.1	1286.9	106.44	475.99	701.85	-46.063	382.84	1019	88.47	574.97	1463.4	-59.294	291.39	78.658	49.623	568.81	1655.3	167.29	496.66	1296.5	367.22	519.86	1120.5	-127.35	745.41	1635.6	62.349	428.19	1155.7	403.51	376	291.12	4.8434	778.53	953.16	-109.78	412.68	1428.1	230.55	748.05	1639.4	138.91	974.27	103.23	224.21	410.1	1139.3	326.07	755.99	297.22	266.79	684.74	504.88	278.45	748.28	34.096	174.83	891.82	55.332	266.65	784.95	82.945	232.83	433.93	522.4	117.14	770.29	402.38	213.04	657.45	612.93	291.81	665.27	1242.1	106.9	786.19	310.75	204.55	603.01	1031.3	263.41	799.8	218.81	198.07	934.43	87.025	197.91	695.72	521.37	145.9	401.86	286.21	76.853	633.42	704.09	305.92	502.22	789.79	-63.963	232.63	40.241	96.519	324.66	98.037	129.03	816.77	121.49	159.16	601.28	794.21	311.4	503.33	867.86	408.76
354	1.77	495.85	830.95	464.25	564.14	1137.4	-194.87	648.14	1006.5	-183.69	731.83	907.19	-151.51	455.94	613.72	-28.242	418.33	513.52	-12.002	432.74	370.75	69.516	371	195.27	81.569	699.8	722.72	268.16	814.5	905.71	-157.63	547.13	688.26	-24.229	385.35	21.791	12.823	437.33	40.055	94.63	490.94	30.341	78.219	593.5	1030	-25.037	567.99	1645	26.582	564.87	1294.1	-161.06	507.13	1507.8	102.51	430.16	1006.3	437.35	442.75	869.86	448.14	395.23	1016.3	167.25	392.17	1285.9	107.09	480.14	701.32	-45.998	388.86	1018	89.096	580.86	1462.6	-58.794	291.62	79.155	49.526	574.8	1654.2	168	502.41	1295.5	367.71	526.33	1119.6	-127.28	751.32	1634.8	62.912	433.46	1154.9	403.89	377.57	291.15	4.8553	786.2	954.26	-109.29	418.86	1427	231.15	754.03	1638.5	139.46	987.71	106.33	224.43	415.5	1138.5	326.43	765.26	296.97	266.64	690.2	503.56	278.08	762.91	33.839	174.18	905.92	56.884	266.55	798.5	83.153	232.5	436.94	522.14	117.24	777.98	402.49	213.11	662.35	611.22	291.65	671.3	1241.1	107.12	795.7	311.15	204.62	609.42	1030.2	263.48	811.02	219.4	198.11	948.25	89.6	198.02	701.31	520.19	145.51	403.36	286.06	76.879	638.54	702.38	305.92	506.92	789.12	-63.868	232.65	40.981	96.398	324.93	98.363	128.97	830.04	122.43	159.09	606.58	792.59	311.61	507.47	866.78	409.62
355	1.775	499.73	829.91	465.07	570.47	1136.7	-194.82	655.38	1006.4	-183.4	739.8	907.7	-150.99	459.67	613.34	-28.17	421.42	513.34	-11.901	434.86	370.4	69.591	371.96	195.32	81.558	705.03	721.06	268.13	822.51	906.92	-157.08	551.29	687.35	-24.133	385.35	21.779	12.823	437.34	40.06	94.609	490.93	30.326	78.196	599.27	1029	-24.905	573.91	1644	27.297	570.8	1293.4	-160.74	513.19	1506.8	103.15	434.86	1005.5	437.86	446.88	869.03	448.75	401.48	1015.2	167.86	398.26	1284.9	107.75	484.39	700.77	-45.922	394.92	1017.1	89.748	586.77	1461.7	-58.281	291.87	79.688	49.409	580.8	1653.1	168.73	508.22	1294.5	368.22	532.76	1118.6	-127.17	757.25	1633.9	63.497	438.82	1154	404.29	379.23	291.18	4.8624	793.76	955.27	-108.8	425.06	1425.9	231.77	760.02	1637.6	140.04	1000.4	109.18	224.58	420.97	1137.7	326.83	774.19	296.68	266.45	695.75	502.26	277.72	776.71	33.655	173.39	919.15	58.297	266.36	811.27	83.357	232.05	440.09	521.85	117.34	785.54	402.52	213.16	667.41	609.58	291.51	677.36	1240.1	107.34	804.9	311.47	204.64	615.87	1029	263.54	821.73	219.92	198.08	961.26	91.967	198.04	707.04	519.08	145.16	404.93	285.92	76.905	643.78	700.74	306.01	511.7	788.43	-63.762	232.68	41.781	96.251	325.22	98.72	128.9	842.61	123.31	158.92	611.95	791.02	311.88	511.73	865.68	410.47
356	1.78	503.76	828.86	465.88	576.75	1135.9	-194.73	662.53	1006.2	-183.09	747.64	908.15	-150.46	463.53	612.95	-28.089	424.65	513.16	-11.799	437.08	370.04	69.67	372.98	195.38	81.54	710.36	719.52	268.14	830.37	908.04	-156.56	555.55	686.45	-24.034	385.35	21.767	12.821	437.34	40.068	94.588	490.93	30.309	78.172	605.08	1028	-24.77	579.84	1643.1	28.031	576.71	1292.6	-160.4	519.27	1505.8	103.81	439.67	1004.8	438.39	451.13	868.16	449.36	407.77	1014.2	168.49	404.38	1283.9	108.42	488.74	700.22	-45.833	401.02	1016.1	90.423	592.7	1460.8	-57.757	292.15	80.261	49.27	586.81	1652	169.47	514.08	1293.4	368.74	539.16	1117.6	-127.03	763.19	1633.1	64.104	444.26	1153.1	404.71	380.99	291.21	4.8633	801.21	956.2	-108.34	431.28	1424.8	232.42	766.03	1636.7	140.63	1012.2	111.72	224.63	426.5	1136.8	327.27	782.78	296.32	266.19	701.41	501.01	277.37	789.66	33.501	172.48	931.5	59.53	266.08	823.24	83.516	231.48	443.38	521.55	117.43	792.97	402.46	213.19	672.66	608.05	291.37	683.46	1239.1	107.58	813.76	311.7	204.61	622.35	1027.9	263.6	831.93	220.33	197.96	973.43	94.072	197.98	712.92	518.05	144.83	406.57	285.78	76.93	649.15	699.2	306.18	516.57	787.74	-63.643	232.7	42.644	96.074	325.53	99.109	128.82	854.44	124.1	158.64	617.4	789.51	312.21	516.12	864.56	411.3
357	1.785	507.93	827.78	466.68	582.99	1135.2	-194.61	669.57	1006	-182.77	755.34	908.53	-149.94	467.51	612.53	-27.999	428.02	512.96	-11.695	439.4	369.67	69.753	374.04	195.47	81.512	715.8	718.12	268.2	838.09	909.05	-156.05	559.93	685.55	-23.934	385.36	21.756	12.817	437.35	40.078	94.566	490.92	30.291	78.147	610.94	1027	-24.636	585.78	1642.1	28.783	582.61	1291.9	-160.03	525.37	1504.8	104.49	444.59	1003.9	438.93	455.52	867.27	449.98	414.08	1013.1	169.14	410.53	1282.9	109.08	493.2	699.65	-45.729	407.16	1015.2	91.119	598.64	1459.9	-57.219	292.45	80.877	49.107	592.84	1650.8	170.23	519.99	1292.3	369.27	545.51	1116.7	-126.86	769.15	1632.3	64.731	449.78	1152.2	405.17	382.83	291.25	4.8564	808.54	957.03	-107.89	437.51	1423.7	233.09	772.05	1635.7	141.25	1023.2	113.89	224.58	432.1	1135.9	327.73	791.02	295.9	265.86	707.19	499.79	277.02	801.7	33.338	171.45	942.96	60.543	265.72	834.39	83.596	230.8	446.83	521.24	117.52	800.28	402.3	213.19	678.11	606.62	291.23	689.59	1238.1	107.82	822.29	311.8	204.51	628.85	1026.8	263.65	841.6	220.62	197.75	984.75	95.869	197.83	718.96	517.11	144.52	408.29	285.63	76.953	654.68	697.75	306.44	521.52	787.05	-63.509	232.73	43.576	95.863	325.86	99.536	128.71	865.52	124.75	158.24	622.95	788.07	312.62	520.63	863.43	412.11
358	1.79	512.26	826.69	467.47	589.18	1134.5	-194.46	676.51	1005.7	-182.43	762.9	908.84	-149.42	471.62	612.11	-27.9	431.53	512.75	-11.592	441.84	369.28	69.838	375.16	195.57	81.473	721.38	716.87	268.29	845.67	909.97	-155.57	564.42	684.65	-23.833	385.37	21.745	12.81	437.37	40.091	94.543	490.92	30.272	78.121	616.84	1026	-24.504	591.75	1641.2	29.553	588.5	1291.1	-159.65	531.48	1503.8	105.19	449.63	1003.1	439.49	460.04	866.36	450.6	420.43	1012.1	169.8	416.7	1281.8	109.76	497.77	699.07	-45.609	413.34	1014.2	91.835	604.59	1459	-56.667	292.78	81.54	48.918	598.89	1649.7	171.01	525.96	1291.2	369.83	551.81	1115.7	-126.65	775.12	1631.5	65.379	455.38	1151.3	405.64	384.78	291.3	4.8405	815.76	957.77	-107.46	443.76	1422.5	233.78	778.09	1634.8	141.89	1033.4	115.65	224.42	437.77	1135	328.23	798.92	295.39	265.45	713.1	498.62	276.67	812.83	33.132	170.33	953.5	61.302	265.27	844.71	83.567	230.02	450.43	520.9	117.61	807.48	402.03	213.13	683.77	605.32	291.1	695.76	1237	108.08	830.49	311.76	204.34	635.38	1025.7	263.71	850.74	220.75	197.45	995.22	97.31	197.58	725.17	516.26	144.24	410.09	285.49	76.972	660.38	696.41	306.76	526.56	786.35	-63.358	232.76	44.583	95.615	326.21	100	128.59	875.84	125.23	157.73	628.6	786.71	313.08	525.26	862.29	412.9
359	1.795	516.73	825.58	468.24	595.32	1133.7	-194.28	683.35	1005.4	-182.09	770.31	909.08	-148.91	475.86	611.68	-27.792	435.2	512.52	-11.489	444.38	368.88	69.924	376.33	195.69	81.421	727.11	715.77	268.43	853.09	910.78	-155.11	569.03	683.77	-23.731	385.39	21.735	12.799	437.38	40.107	94.52	490.92	30.251	78.094	622.81	1025.1	-24.375	597.73	1640.2	30.341	594.38	1290.4	-159.24	537.6	1502.7	105.9	454.78	1002.2	440.06	464.71	865.42	451.23	426.82	1011.1	170.48	422.9	1280.8	110.43	502.45	698.48	-45.473	419.57	1013.3	92.566	610.56	1458.1	-56.101	293.14	82.252	48.701	604.95	1648.6	171.81	531.97	1290.1	370.4	558.08	1114.8	-126.41	781.12	1630.6	66.045	461.08	1150.3	406.15	386.82	291.35	4.8144	822.87	958.41	-107.05	450.02	1421.4	234.49	784.15	1633.9	142.54	1042.8	116.95	224.14	443.52	1134	328.76	806.51	294.79	264.98	719.15	497.5	276.32	823.02	32.858	169.15	963.13	61.78	264.73	854.19	83.407	229.14	454.18	520.55	117.69	814.56	401.63	213.01	689.66	604.14	290.97	701.96	1236.1	108.36	838.37	311.58	204.08	641.93	1024.6	263.78	859.34	220.71	197.04	1004.8	98.356	197.22	731.55	515.49	143.98	411.98	285.35	76.987	666.24	695.19	307.14	531.69	785.65	-63.188	232.79	45.67	95.328	326.59	100.51	128.45	885.37	125.49	157.1	634.38	785.44	313.61	530.02	861.13	413.68
